<?xml version="1.0" encoding="UTF-8"?>
<svg id="Layer_1" data-name="Layer 1" xmlns="http://www.w3.org/2000/svg" viewBox="0 0 311.95 148.75">
  <defs>
    <style>
      .cls-1 {
        fill: #149fda;
      }

      .cls-2 {
        fill: #091f41;
      }
    </style>
  </defs>
  <g>
    <g>
      <path class="cls-1" d="m74.78,129.27c-.34.25-.8.25-1.14,0-11.07-8.13-18.69-11.36-30.89-11.36-8.47,0-16.37,2.45-23.04,6.67,13.56,14.66,32.95,23.85,54.5,23.85s40.94-9.18,54.5-23.85c-6.66-4.22-14.56-6.67-23.04-6.67-12.21,0-19.79,3.18-30.89,11.36Z"/>
      <path class="cls-1" d="m74.6,112.67c-.24.15-.53.15-.77,0-8.96-5.77-19.63-9.13-31.08-9.13s-22.65,3.52-31.75,9.56c1.26,2.04,2.62,4.02,4.06,5.92,7.94-5.25,17.46-8.31,27.69-8.31,11.7,0,22.89,4.04,31.03,10.25.26.2.61.2.86,0,8.19-6.22,19.33-10.26,31.03-10.26,10.23,0,19.75,3.06,27.69,8.31,1.45-1.91,2.8-3.88,4.06-5.92-9.1-6.04-20.01-9.56-31.75-9.56s-22.12,3.35-31.08,9.13Z"/>
      <path class="cls-1" d="m73.87,104.34c.21.12.47.12.68,0,12.72-7,28.05-9.85,44.16-6.7,7.58,1.48,15.09,4.92,21.93,9.68,4.98-9.97,7.78-21.21,7.78-33.11C148.43,33.23,115.2,0,74.21,0S0,33.23,0,74.21c0,11.9,2.8,23.14,7.78,33.11,6.84-4.76,14.35-8.2,21.93-9.68,16.11-3.15,31.44-.3,44.16,6.7Zm14.81-69.37c0,.26-.21.48-.48.48h-28.58c-.26,0-.48-.21-.48-.48v-5.2c0-.26.21-.48.48-.48h28.58c.26,0,.48.21.48.48v5.2Zm-43.68,6.65h57.84c.51,0,.92.41.92.92v13.82c0,.24-.2.62-.69.53l-28.91-5.53c-.15-.03-.31-.03-.47,0l-28.89,5.54c-.44.09-.71-.25-.71-.7v-13.66c0-.51.41-.92.92-.92Zm66.72,47.71c-1.99-.17-4.01-.28-6.05-.28-11.12,0-21.77,2.75-31.17,6.99-.18.08-.39.08-.58,0-9.4-4.24-20.05-6.99-31.17-6.99-2.04,0-4.06.13-6.06.31l-6.24-21.75c-.13-.53.21-1.06.75-1.17l42.48-8.39c.16-.03.32-.03.47,0l43.09,8.38c.54.1.88.64.75,1.17l-6.27,21.73Z"/>
    </g>
    <g>
      <g>
        <path class="cls-2" d="m168.04,79.04h29.52s0,8.36,0,8.36h-19.08s0,8.2,0,8.2h16.5s0,8.08,0,8.08h-16.5s0,15.44,0,15.44h-10.44s0-40.07,0-40.07Z"/>
        <path class="cls-2" d="m208.02,106.61c.17,3.98,2.47,6.62,6.51,6.62,2.3,0,4.55-1.07,5.44-3.2h8.92c-1.74,6.73-7.97,9.65-14.48,9.66-9.49,0-15.94-5.72-15.94-15.49,0-8.92,7.13-15.32,15.71-15.33,10.44,0,15.66,7.85,15.21,17.73h-21.38Zm11.84-5.33c-.17-3.26-2.47-5.95-5.67-5.95-3.37,0-5.61,2.41-6.17,5.95h11.84Z"/>
        <path class="cls-2" d="m233.11,89.99l9.26.02v5.13h.11c1.4-3.7,4.66-5.69,8.75-5.69.73,0,1.52.05,2.25.21v8.7c-1.23-.34-2.36-.56-3.65-.56-4.71,0-7.18,3.26-7.18,6.9v14.42s-9.54,0-9.54,0v-29.13Z"/>
        <path class="cls-2" d="m257.46,89.98l9.26.02v5.13h.11c1.4-3.7,4.66-5.69,8.75-5.69.73,0,1.52.04,2.25.21v8.69c-1.23-.34-2.36-.56-3.65-.56-4.71,0-7.18,3.26-7.18,6.9v14.42s-9.54,0-9.54,0v-29.13Z"/>
        <path class="cls-2" d="m300.45,121.69c-2.3,6.4-5.72,7.19-12.18,7.19h-4.49s0-7.74,0-7.74h3.31c2.19,0,3.82-1.24,3.82-3.26,0-1.57-1.85-6.06-2.42-7.63l-7.53-20.26,10.1.02,5.5,19h.11l5.5-19,9.77-.02-11.5,31.7Z"/>
      </g>
      <g>
        <polygon class="cls-2" points="168.04 29.3 178.74 29.3 192.64 53.9 192.75 53.9 192.75 29.3 202.55 29.29 202.56 69.22 191.86 69.22 177.96 44.34 177.85 44.34 177.85 69.23 168.05 69.23 168.04 29.3"/>
        <polygon class="cls-2" points="231.19 54.34 231.19 69.21 220.77 69.22 220.76 54.34 206.19 29.29 218.01 29.29 225.97 45.51 233.93 29.29 245.75 29.29 231.19 54.34"/>
        <path class="cls-2" d="m272.64,43.54c-.56-4.03-3.7-6.15-8.07-6.15-6.72,0-9.3,5.93-9.3,11.86,0,5.93,2.58,11.85,9.3,11.85,4.87,0,7.68-2.8,8.07-7.38h10.42c-.56,10.29-8.12,16.33-18.26,16.33-12.1,0-19.95-9.22-19.95-20.8,0-11.58,7.84-20.8,19.94-20.81,8.63,0,17.99,5.48,18.27,15.09h-10.42Z"/>
      </g>
    </g>
  </g>
  <g id="Layer_2" data-name="Layer 2">
    <g>
      <path class="cls-1" d="m112.99,146.32h-.89v-.55h2.43v.55h-.89v2.42h-.65v-2.42Z"/>
      <path class="cls-1" d="m114.88,145.77h.92l.7,2.04h0l.66-2.04h.92v2.97h-.61v-2.11h0l-.73,2.11h-.5l-.73-2.09h0v2.09h-.61v-2.97Z"/>
    </g>
  </g>
</svg>